<svg id="Layer_1" data-name="Layer 1" xmlns="http://www.w3.org/2000/svg" viewBox="0 0 32 32"><defs><style>.cls-1{fill:#DC004E;}.cls-2{fill:#fff;}</style></defs><circle class="cls-1" cx="16" cy="16" r="16"/><g id="IPSpll.tif"><path class="cls-2" d="M7.26,23.66V11.21h16.4V23.66Zm15.18-11.5h-14V22.62h14Z"/><path class="cls-2" d="M25.79,9.29V21.64h-1.6c.1-.37-.28-.83.38-1,.07,0,.13-.22.13-.34q0-5,0-9.94s0-.08-.09-.19H11.34c-.29,0-.61-.13-.84.31-.08.17-.64.1-1,.13V9.29Z"/><path class="cls-2" d="M9.07,21.62l3.5-4.08,2.27,2.29L18,16.28l3.56,5.34Z"/><path class="cls-2" d="M12,14.94a1.1,1.1,0,0,1-2.2,0,1.1,1.1,0,0,1,2.2,0Z"/></g></svg>