<svg id="Layer_1" data-name="Layer 1" xmlns="http://www.w3.org/2000/svg" viewBox="0 0 32 32"><defs><style>.cls-1{fill:#DC004E;}.cls-2{fill:#fff;}</style></defs><circle class="cls-1" cx="16" cy="16" r="16"/><g id="Ejggqc.tif"><path class="cls-2" d="M18.41,22.18H8.21a2,2,0,0,1-1.65-1.33c0-.14-.07-.3-.11-.45V12.17s0,0,0-.05a1.93,1.93,0,0,1,1.32-1.63,3.57,3.57,0,0,1,.47-.11H18.47a2,2,0,0,1,1.75,1.94c0,.23,0,.46,0,.69v.14l.08-.05,3.61-2.33a3.25,3.25,0,0,1,.7-.4h.16a.5.5,0,0,1,.27.2,2.14,2.14,0,0,1,.1.22v11a.49.49,0,0,1-.8.3l-4-2.59-.09-.05c0,.29,0,.57,0,.85a2,2,0,0,1-1.32,1.81A2.68,2.68,0,0,1,18.41,22.18ZM13.34,11.36H8.45a1,1,0,0,0-1,1V20.2a1,1,0,0,0,1,1h9.81a1,1,0,0,0,1-1V12.36a.85.85,0,0,0,0-.23,1,1,0,0,0-1-.77Zm10.82.43-.06,0-3.82,2.46a.11.11,0,0,0-.06.11v3.79a.12.12,0,0,0,.07.11l3.8,2.45.07,0Z"/></g><path class="cls-2" d="M12.1,16.13h0c0,.56,0,1.12,0,1.67,0,.39.18.53.55.31.93-.53,1.86-1.06,2.79-1.61.39-.23.39-.41,0-.65-.89-.52-1.79-1-2.7-1.55-.47-.28-.62-.19-.63.38Z"/></svg>